<svg xmlns="http://www.w3.org/2000/svg" viewBox="0 0 264 48"  fill-rule="nonzero" stroke-linejoin="round" stroke-miterlimit="2" fill="#555" xmlns:v="https://vecta.io/nano"><path d="M-6.112-9.759H7.52l7.102 12.382 6.885-12.382h13.495L22.545 9.735l13.632 20.756H22.272L14.377 17.56 6.454 30.491H-7.369L6.454 9.515-6.112-9.759zm45.567 29.048h11.883v11.202H39.455zm43.982 4.558H69.341l-1.94 6.644H54.753l15.052-40.25h13.496l15.052 40.25H85.404l-1.967-6.644zm-2.595-8.704L76.416.674l-4.398 14.469h8.824zm21.472-24.902h12.375V20.58h19.314v9.911h-31.689v-40.25zm37.29 0h33.164v8.594h-20.762v6.397h19.259v8.209h-19.259v7.935h21.363v9.115h-33.765v-40.25zm40.294 0h16.282l6.283 24.491 6.256-24.491h16.227v40.25h-10.108V-.205l-7.84 30.696h-9.152L190.033-.205v30.696h-10.135v-40.25zm50.785 26.934l11.774-.741c.255 1.922.774 3.386 1.557 4.393 1.275 1.629 3.096 2.443 5.464 2.443 1.766 0 3.128-.416 4.084-1.249s1.434-1.798 1.434-2.896c0-1.044-.455-1.977-1.366-2.801s-3.023-1.602-6.338-2.334c-5.427-1.226-9.297-2.855-11.61-4.887-2.331-2.032-3.497-4.622-3.497-7.77 0-2.068.597-4.022 1.789-5.862s2.987-3.285 5.382-4.338 5.678-1.579 9.848-1.579c5.118 0 9.02.957 11.706 2.87s4.285 4.955 4.795 9.129l-11.665.686c-.31-1.812-.961-3.13-1.954-3.954s-2.363-1.235-4.111-1.235c-1.439 0-2.522.306-3.251.92s-1.093 1.359-1.093 2.237c0 .641.301 1.218.902 1.73.583.531 1.967 1.025 4.152 1.483 5.409 1.171 9.284 2.356 11.624 3.555s4.043 2.686 5.109 4.462 1.598 3.761 1.598 5.958a12.8 12.8 0 0 1-2.131 7.138c-1.42 2.179-3.406 3.83-5.955 4.956s-5.764 1.689-9.644 1.689c-6.811 0-11.528-1.318-14.15-3.954s-4.107-5.985-4.453-10.049z"/></svg>